<svg width="40" height="40" viewBox="0 0 40 40" fill="none" xmlns="http://www.w3.org/2000/svg">
<rect x="4" y="4" width="32" height="32" rx="8" fill="#3DB1FC"/>
<path fill-rule="evenodd" clip-rule="evenodd" d="M19.5396 10.2222V15.8489L26.7317 19.9283L31.5235 17.1149L19.5396 10.2222Z" fill="white"/>
<path fill-rule="evenodd" clip-rule="evenodd" d="M19.5396 10.2222V15.8489L12.3492 19.9283L7.55565 17.1149L19.5396 10.2222Z" fill="white"/>
<path fill-rule="evenodd" clip-rule="evenodd" d="M12.3496 19.9282V21.2584C12.3796 23.7728 12.9436 25.2498 14.3535 26.8913C17.1286 29.9131 21.8258 29.9622 24.716 26.9616C26.0262 25.6015 26.7303 23.5153 26.7303 21.5459V19.9282L19.57 23.9838L12.3496 19.9282ZM19.57 23.9838C18.8507 23.5744 12.3496 19.9282 12.3496 19.9282L19.57 23.9838Z" fill="white"/>
</svg>
