<svg width="235" height="75" viewBox="0 0 235 75" fill="none" xmlns="http://www.w3.org/2000/svg">
<rect x="6" y="11" width="52" height="52" rx="8" fill="#3DB1FC"/>
<path fill-rule="evenodd" clip-rule="evenodd" d="M31.2517 21.1111V30.2545L42.939 36.8835L50.7255 32.3118L31.2517 21.1111Z" fill="white"/>
<path fill-rule="evenodd" clip-rule="evenodd" d="M31.2517 21.1111V30.2545L19.5674 36.8835L11.7779 32.3118L31.2517 21.1111Z" fill="white"/>
<path fill-rule="evenodd" clip-rule="evenodd" d="M19.5679 36.8835V39.0451C19.6167 43.1309 20.5331 45.5311 22.8241 48.1985C27.3338 53.109 34.9666 53.1887 39.6633 48.3128C41.7923 46.1026 42.9365 42.7125 42.9365 39.5123V36.8835L31.301 43.4738L19.5679 36.8835ZM31.301 43.4738C30.1321 42.8086 19.5679 36.8835 19.5679 36.8835L31.301 43.4738Z" fill="white"/>
<path d="M80.9142 31.0777V55.185H73.5791V31.0777H65V24.815H89.4933V31.0777H80.9142Z" fill="white"/>
<path d="M118.579 43.7319C118.579 45.5621 118.264 47.235 117.635 48.7507C117.035 50.2377 116.162 51.5246 115.018 52.6113C113.875 53.6693 112.488 54.4987 110.858 55.0992C109.256 55.6997 107.469 56 105.496 56C103.494 56 101.692 55.6997 100.091 55.0992C98.4894 54.4987 97.131 53.6693 96.0157 52.6113C94.9005 51.5246 94.0426 50.2377 93.442 48.7507C92.8415 47.235 92.5412 45.5621 92.5412 43.7319V24.815H99.8334V43.1314C99.8334 43.9607 99.9335 44.7471 100.134 45.4906C100.362 46.2341 100.691 46.9062 101.12 47.5067C101.578 48.0786 102.164 48.5362 102.879 48.8794C103.623 49.2225 104.509 49.3941 105.539 49.3941C106.568 49.3941 107.44 49.2225 108.155 48.8794C108.899 48.5362 109.499 48.0786 109.957 47.5067C110.414 46.9062 110.743 46.2341 110.943 45.4906C111.144 44.7471 111.244 43.9607 111.244 43.1314V24.815H118.579V43.7319Z" fill="white"/>
<path d="M152.864 39.9142C152.864 42.5737 152.364 44.8758 151.363 46.8204C150.391 48.7364 149.089 50.3235 147.459 51.5818C145.858 52.8114 144.042 53.7265 142.012 54.3271C139.981 54.899 137.922 55.185 135.835 55.185H124.51V24.815H135.492C137.636 24.815 139.753 25.0724 141.84 25.5871C143.928 26.0733 145.787 26.9026 147.417 28.0751C149.047 29.2189 150.362 30.7632 151.363 32.7078C152.364 34.6524 152.864 37.0545 152.864 39.9142ZM145.229 39.9142C145.229 38.1984 144.943 36.7828 144.371 35.6676C143.828 34.5237 143.084 33.6229 142.14 32.9651C141.225 32.2788 140.167 31.7927 138.966 31.5067C137.794 31.2207 136.578 31.0777 135.32 31.0777H131.674V48.8365H135.148C136.464 48.8365 137.722 48.6935 138.923 48.4075C140.153 48.0929 141.225 47.5925 142.14 46.9062C143.084 46.2198 143.828 45.3047 144.371 44.1609C144.943 43.017 145.229 41.6014 145.229 39.9142Z" fill="white"/>
<path d="M189.386 39.8713C189.386 42.2735 188.971 44.4754 188.142 46.4772C187.313 48.4504 186.155 50.1519 184.668 51.5818C183.209 52.983 181.465 54.0697 179.434 54.8418C177.404 55.6139 175.202 56 172.828 56C170.455 56 168.253 55.6139 166.223 54.8418C164.221 54.0697 162.476 52.983 160.989 51.5818C159.531 50.1519 158.387 48.4504 157.558 46.4772C156.728 44.4754 156.314 42.2735 156.314 39.8713C156.314 37.4406 156.728 35.2529 157.558 33.3083C158.387 31.3351 159.531 29.6622 160.989 28.2895C162.476 26.9169 164.221 25.8588 166.223 25.1153C168.253 24.3718 170.455 24 172.828 24C175.202 24 177.404 24.3718 179.434 25.1153C181.465 25.8588 183.209 26.9169 184.668 28.2895C186.155 29.6622 187.313 31.3351 188.142 33.3083C188.971 35.2529 189.386 37.4406 189.386 39.8713ZM181.536 39.8713C181.536 38.5559 181.322 37.3262 180.893 36.1823C180.464 35.0384 179.863 34.0661 179.091 33.2654C178.348 32.4361 177.433 31.7927 176.346 31.3351C175.288 30.849 174.115 30.6059 172.828 30.6059C171.542 30.6059 170.369 30.849 169.311 31.3351C168.253 31.7927 167.338 32.4361 166.566 33.2654C165.794 34.0661 165.193 35.0384 164.764 36.1823C164.364 37.3262 164.164 38.5559 164.164 39.8713C164.164 41.244 164.378 42.5165 164.807 43.689C165.236 44.8329 165.822 45.8195 166.566 46.6488C167.338 47.4781 168.253 48.1358 169.311 48.622C170.369 49.0795 171.542 49.3083 172.828 49.3083C174.115 49.3083 175.288 49.0795 176.346 48.622C177.404 48.1358 178.319 47.4781 179.091 46.6488C179.863 45.8195 180.464 44.8329 180.893 43.689C181.322 42.5165 181.536 41.244 181.536 39.8713Z" fill="white"/>
<path d="M221.754 55.185L221.926 33.6944H221.797L213.904 55.185H208.757L201.079 33.6944H200.95L201.122 55.185H194.215V24.815H204.639L211.545 44.2895H211.717L218.323 24.815H228.918V55.185H221.754Z" fill="white"/>
</svg>
