<svg width="195" height="55" viewBox="0 0 195 55" fill="none" xmlns="http://www.w3.org/2000/svg">
<rect y="0.5" width="54" height="54" rx="8" fill="#3DB1FC"/>
<path fill-rule="evenodd" clip-rule="evenodd" d="M26.2227 11V20.4951L38.3595 27.3791L46.4455 22.6315L26.2227 11Z" fill="white"/>
<path fill-rule="evenodd" clip-rule="evenodd" d="M26.2227 11V20.4951L14.089 27.3791L5.99982 22.6315L26.2227 11Z" fill="white"/>
<path fill-rule="evenodd" clip-rule="evenodd" d="M14.0898 27.3792V29.6238C14.1405 33.8668 15.0922 36.3593 17.4713 39.1293C22.1545 44.2287 30.0809 44.3114 34.9581 39.248C37.1691 36.9527 38.3572 33.4323 38.3572 30.109V27.3792L26.2742 34.2229L14.0898 27.3792ZM26.2742 34.2229C25.0604 33.5321 14.0898 27.3792 14.0898 27.3792L26.2742 34.2229Z" fill="white"/>
<path d="M83.9416 20.8049V38.8944H78.4375V20.8049H72V16.1055H90.3792V20.8049H83.9416Z" fill="black"/>
<path d="M112.204 30.3002C112.204 31.6736 111.968 32.9289 111.496 34.0662C111.045 35.182 110.391 36.1477 109.533 36.9631C108.674 37.7571 107.634 38.3794 106.41 38.83C105.209 39.2806 103.868 39.5059 102.387 39.5059C100.885 39.5059 99.533 39.2806 98.3313 38.83C97.1296 38.3794 96.1103 37.7571 95.2735 36.9631C94.4366 36.1477 93.7928 35.182 93.3422 34.0662C92.8916 32.9289 92.6663 31.6736 92.6663 30.3002V16.1055H98.1382V29.8496C98.1382 30.4719 98.2133 31.062 98.3635 31.6199C98.5352 32.1779 98.7819 32.6821 99.1038 33.1328C99.4471 33.5619 99.887 33.9053 100.423 34.1628C100.981 34.4203 101.647 34.549 102.419 34.549C103.192 34.549 103.846 34.4203 104.383 34.1628C104.941 33.9053 105.391 33.5619 105.734 33.1328C106.078 32.6821 106.325 32.1779 106.475 31.6199C106.625 31.062 106.7 30.4719 106.7 29.8496V16.1055H112.204V30.3002Z" fill="black"/>
<path d="M137.931 27.4355C137.931 29.4312 137.556 31.1586 136.805 32.6178C136.075 34.0555 135.099 35.2464 133.876 36.1906C132.674 37.1133 131.311 37.8 129.788 38.2506C128.264 38.6798 126.719 38.8944 125.153 38.8944H116.655V16.1055H124.895C126.505 16.1055 128.093 16.2986 129.659 16.6848C131.225 17.0496 132.62 17.6719 133.843 18.5517C135.067 19.4101 136.054 20.5688 136.805 22.028C137.556 23.4872 137.931 25.2897 137.931 27.4355ZM132.202 27.4355C132.202 26.148 131.987 25.0858 131.558 24.249C131.15 23.3906 130.592 22.7147 129.884 22.2211C129.198 21.7061 128.404 21.3413 127.502 21.1267C126.623 20.9122 125.711 20.8049 124.766 20.8049H122.03V34.1306H124.638C125.625 34.1306 126.569 34.0233 127.47 33.8087C128.393 33.5727 129.198 33.1971 129.884 32.6821C130.592 32.1671 131.15 31.4805 131.558 30.6221C131.987 29.7638 132.202 28.7016 132.202 27.4355Z" fill="black"/>
<path d="M165.336 27.4033C165.336 29.2059 165.025 30.8582 164.403 32.3603C163.781 33.8409 162.911 35.1177 161.796 36.1906C160.701 37.2421 159.392 38.0575 157.869 38.6369C156.345 39.2162 154.693 39.5059 152.912 39.5059C151.131 39.5059 149.478 39.2162 147.955 38.6369C146.453 38.0575 145.144 37.2421 144.028 36.1906C142.934 35.1177 142.075 33.8409 141.453 32.3603C140.831 30.8582 140.52 29.2059 140.52 27.4033C140.52 25.5794 140.831 23.9378 141.453 22.4786C142.075 20.998 142.934 19.7427 144.028 18.7127C145.144 17.6827 146.453 16.8887 147.955 16.3308C149.478 15.7729 151.131 15.4939 152.912 15.4939C154.693 15.4939 156.345 15.7729 157.869 16.3308C159.392 16.8887 160.701 17.6827 161.796 18.7127C162.911 19.7427 163.781 20.998 164.403 22.4786C165.025 23.9378 165.336 25.5794 165.336 27.4033ZM159.446 27.4033C159.446 26.4163 159.285 25.4935 158.963 24.6352C158.641 23.7769 158.191 23.0473 157.611 22.4464C157.053 21.8241 156.367 21.3413 155.551 20.998C154.757 20.6332 153.877 20.4508 152.912 20.4508C151.946 20.4508 151.066 20.6332 150.272 20.998C149.478 21.3413 148.792 21.8241 148.212 22.4464C147.633 23.0473 147.182 23.7769 146.861 24.6352C146.56 25.4935 146.41 26.4163 146.41 27.4033C146.41 28.4334 146.571 29.3883 146.893 30.2681C147.215 31.1264 147.654 31.8667 148.212 32.489C148.792 33.1113 149.478 33.6048 150.272 33.9696C151.066 34.313 151.946 34.4846 152.912 34.4846C153.877 34.4846 154.757 34.313 155.551 33.9696C156.345 33.6048 157.032 33.1113 157.611 32.489C158.191 31.8667 158.641 31.1264 158.963 30.2681C159.285 29.3883 159.446 28.4334 159.446 27.4033Z" fill="black"/>
<path d="M189.625 38.8944L189.753 22.7683H189.657L183.734 38.8944H179.872L174.11 22.7683H174.014L174.142 38.8944H168.96V16.1055H176.782L181.964 30.7187H182.093L187.05 16.1055H195V38.8944H189.625Z" fill="black"/>
</svg>
