<svg xmlns="http://www.w3.org/2000/svg" width="44" height="45" viewBox="0 0 44 45" fill="none">
<path opacity="0.4" d="M29.4718 4.16675H35.6794C38.2503 4.16675 40.3334 6.26748 40.3334 8.86001V15.12C40.3334 17.7126 38.2503 19.8133 35.6794 19.8133H29.4718C26.901 19.8133 24.8179 17.7126 24.8179 15.12V8.86001C24.8179 6.26748 26.901 4.16675 29.4718 4.16675Z" fill="#3DB1FC"/>
<path fill-rule="evenodd" clip-rule="evenodd" d="M8.32047 4.16675H14.5281C17.0989 4.16675 19.182 6.26748 19.182 8.86001V15.12C19.182 17.7126 17.0989 19.8133 14.5281 19.8133H8.32047C5.74964 19.8133 3.6665 17.7126 3.6665 15.12V8.86001C3.6665 6.26748 5.74964 4.16675 8.32047 4.16675ZM8.32047 25.1869H14.5281C17.0989 25.1869 19.182 27.2876 19.182 29.8801V36.1402C19.182 38.7309 17.0989 40.8334 14.5281 40.8334H8.32047C5.74964 40.8334 3.6665 38.7309 3.6665 36.1402V29.8801C3.6665 27.2876 5.74964 25.1869 8.32047 25.1869ZM35.6792 25.1869H29.4716C26.9008 25.1869 24.8176 27.2876 24.8176 29.8801V36.1402C24.8176 38.7309 26.9008 40.8334 29.4716 40.8334H35.6792C38.25 40.8334 40.3332 38.7309 40.3332 36.1402V29.8801C40.3332 27.2876 38.25 25.1869 35.6792 25.1869Z" fill="#3DB1FC"/>
</svg>